<?xml version="1.0" encoding="UTF-8" standalone="no"?>
<!DOCTYPE svg PUBLIC "-//W3C//DTD SVG 1.1//EN" "http://www.w3.org/Graphics/SVG/1.1/DTD/svg11.dtd">
<!-- Created with Vectornator (http://vectornator.io/) -->
<svg height="100%" stroke-miterlimit="10" style="fill-rule:nonzero;clip-rule:evenodd;stroke-linecap:round;stroke-linejoin:round;" version="1.1" viewBox="292.185 525.793 71.625 142.344" width="100%" xml:space="preserve" xmlns="http://www.w3.org/2000/svg" xmlns:vectornator="http://vectornator.io" xmlns:xlink="http://www.w3.org/1999/xlink">
<defs/>
<g id="Logo" vectornator:layerName="Logo">
<path d="M340.967 525.793C331.879 525.793 324.696 529.645 318.935 537.325L317.654 537.325L316.123 527.075L292.185 527.075C292.825 538.723 292.842 550.239 292.842 561.887L292.842 581.731L292.779 581.731L292.779 642.293C292.779 659.061 301.108 668.137 315.06 668.137C324.148 668.137 331.3 664.286 337.06 656.606L338.342 656.606L339.873 666.856L363.81 666.856C363.17 655.208 363.186 643.691 363.185 632.043L363.185 592.356L363.217 592.356L363.217 551.668C363.217 534.9 354.919 525.793 340.967 525.793ZM328.935 546.918C334.951 546.918 338.279 551.026 338.279 558.45L338.279 581.731L338.217 581.731L338.217 632.825C338.217 641.273 334.132 647.012 327.092 647.012C321.076 647.012 317.748 642.936 317.748 635.512L317.748 592.356L317.779 592.356L317.779 561.137C317.779 552.689 321.895 546.918 328.935 546.918Z" fill="#000002" fill-rule="nonzero" opacity="1" stroke="none" vectornator:layerName="Curve 1"/>
</g>
</svg>
