<?xml version="1.0" encoding="UTF-8" standalone="no"?>
<!DOCTYPE svg PUBLIC "-//W3C//DTD SVG 1.1//EN" "http://www.w3.org/Graphics/SVG/1.1/DTD/svg11.dtd">
<!-- Created with Vectornator (http://vectornator.io/) -->
<svg height="100%" stroke-miterlimit="10" style="fill-rule:nonzero;clip-rule:evenodd;stroke-linecap:round;stroke-linejoin:round;" version="1.1" viewBox="295.005 42.7525 366.848 189.695" width="100%" xml:space="preserve" xmlns="http://www.w3.org/2000/svg" xmlns:vectornator="http://vectornator.io" xmlns:xlink="http://www.w3.org/1999/xlink">
<defs/>
<g id="Notchup." vectornator:layerName="Notchup.">
<g fill="#ffffff" opacity="1" stroke="none" vectornator:layerName="Text 1">
<path d="M320.605 132.352L320.605 101.12C320.605 92.6725 324.701 86.9125 331.741 86.9125C337.757 86.9125 341.085 91.0085 341.085 98.4325L341.085 132.352L366.045 132.352L366.045 91.6485C366.045 74.8805 357.725 65.7925 343.773 65.7925C334.685 65.7925 327.517 69.6325 321.757 77.3125L320.477 77.3125L318.941 67.0725L295.005 67.0725C295.645 78.7205 295.645 90.2405 295.645 101.888L295.645 132.352L320.605 132.352Z"/>
<path d="M411.357 133.632C434.781 133.632 446.429 118.912 446.429 99.7125C446.429 80.5125 434.781 65.7925 411.357 65.7925C387.933 65.7925 376.285 80.5125 376.285 99.7125C376.285 118.912 387.933 133.632 411.357 133.632ZM411.357 113.792C405.213 113.792 401.245 108.416 401.245 99.7125C401.245 91.0085 405.213 85.6325 411.357 85.6325C417.501 85.6325 421.469 91.0085 421.469 99.7125C421.469 108.416 417.501 113.792 411.357 113.792Z"/>
<path d="M489.181 133.632C496.349 133.632 501.469 132.224 506.973 129.408L501.981 112.256C500.061 113.28 497.885 113.792 495.837 113.792C491.869 113.792 489.053 111.744 489.053 106.368L489.053 86.2725L504.541 86.2725L504.541 67.0725L489.053 67.0725L489.053 47.8725L468.061 47.8725L464.989 67.0725L451.933 67.0725L451.933 86.2725L464.093 86.2725L464.093 107.904C464.093 126.08 474.077 133.632 489.181 133.632Z"/>
<path d="M547.933 133.632C565.213 133.632 576.733 125.44 580.957 110.464L557.021 105.6C555.869 111.232 552.285 114.048 547.677 114.048C541.789 114.048 537.949 108.544 537.949 99.7125C537.949 90.8805 541.789 85.3765 547.677 85.3765C552.029 85.3765 555.357 88.3205 556.381 93.8245L580.189 88.9605C576.349 73.9845 565.085 65.7925 547.933 65.7925C524.509 65.7925 512.989 80.5125 512.989 99.7125C512.989 118.912 524.509 133.632 547.933 133.632Z"/>
<path d="M639.709 65.7925C630.621 65.7925 623.325 69.5045 617.565 77.3125L615.773 77.3125L616.413 61.9525L616.413 42.7525L591.453 42.7525L591.453 132.352L616.413 132.352L616.413 101.248C616.413 92.8005 620.509 86.9125 627.549 86.9125C633.565 86.9125 636.893 91.0085 636.893 98.4325L636.893 132.352L661.853 132.352L661.853 91.6485C661.853 74.8805 653.533 65.7925 639.709 65.7925Z"/>
</g>
<g opacity="1" vectornator:layerName="Group 1">
<path d="M317.87 208.128C326.958 208.128 334.126 204.288 339.886 196.608L341.166 196.608L342.702 206.848L366.638 206.848C365.998 195.2 365.998 183.68 365.998 172.032L365.998 121.723L341.038 121.723L341.038 172.8C341.038 181.248 336.942 187.008 329.902 187.008C323.886 187.008 320.558 182.912 320.558 175.488L320.558 121.723L295.598 121.723L295.598 182.272C295.598 199.04 303.918 208.128 317.87 208.128Z" fill="#ffffff" fill-rule="nonzero" opacity="1" stroke="none"/>
<path d="M405.038 232.448L405.038 196.608L406.318 196.608C410.67 204.032 417.454 208.128 426.03 208.128C441.774 208.128 451.118 195.84 451.118 174.208C451.118 152.576 441.774 140.288 426.03 140.288C417.454 140.288 410.67 144.384 406.318 151.808L405.038 151.808L403.374 141.568L379.438 141.568C380.078 153.216 380.078 164.736 380.078 176.384L380.078 232.448L405.038 232.448ZM415.662 188.288C409.134 188.288 405.038 182.912 405.038 174.208C405.038 165.504 409.134 160.128 415.662 160.128C422.062 160.128 426.158 165.504 426.158 174.208C426.158 182.912 422.062 188.288 415.662 188.288Z" fill="#ffffff" fill-rule="nonzero" opacity="1" stroke="none"/>
</g>
<path d="M478.429 206.422C485.853 206.422 491.869 201.174 491.869 193.494C491.869 186.07 485.853 180.822 478.429 180.822C471.005 180.822 464.989 186.07 464.989 193.494C464.989 201.174 471.005 206.422 478.429 206.422Z" fill="#ffffff" opacity="1" stroke="none" vectornator:layerName="Text 2"/>
</g>
</svg>
