<?xml version="1.0" encoding="UTF-8" standalone="no"?>
<!DOCTYPE svg PUBLIC "-//W3C//DTD SVG 1.1//EN" "http://www.w3.org/Graphics/SVG/1.1/DTD/svg11.dtd">
<!-- Created with Vectornator (http://vectornator.io/) -->
<svg height="100%" stroke-miterlimit="10" style="fill-rule:nonzero;clip-rule:evenodd;stroke-linecap:round;stroke-linejoin:round;" version="1.1" viewBox="292.185 308.173 533.818 179.509" width="100%" xml:space="preserve" xmlns="http://www.w3.org/2000/svg" xmlns:vectornator="http://vectornator.io" xmlns:xlink="http://www.w3.org/1999/xlink">
<defs/>
<g id="Steps." vectornator:layerName="Steps.">
<g opacity="1" vectornator:layerName="Group 1"/>
<g fill="#000002" opacity="1" stroke="none" vectornator:layerName="Text 1">
<path d="M410.203 449.682C436.203 449.682 452.003 437.682 452.003 419.882C452.003 377.682 392.203 392.682 392.203 372.282C392.203 366.282 397.403 361.482 407.203 361.482C415.403 361.482 423.203 365.282 426.003 374.482L449.203 368.482C444.203 351.482 428.003 343.682 406.803 343.682C381.403 343.682 366.403 355.882 366.403 372.482C366.403 414.882 426.003 399.882 426.003 420.082C426.003 426.882 420.403 431.882 409.803 431.882C399.603 431.882 390.203 427.282 387.203 417.082L364.003 423.082C369.403 441.682 387.803 449.682 410.203 449.682Z"/>
<path d="M496.203 449.682C505.803 449.682 513.003 447.882 521.203 442.882L514.603 424.282C510.203 426.882 506.403 427.682 502.403 427.682C495.403 427.682 490.403 423.682 490.403 414.482L490.403 367.082L517.603 367.082L517.603 345.682L490.403 345.682L490.403 316.882L469.203 316.882L464.803 345.682L443.803 345.682L443.803 367.082L463.403 367.082L463.403 415.882C463.403 438.882 476.603 449.682 496.203 449.682Z"/>
<path d="M612.603 393.682C612.603 364.082 594.203 343.682 564.003 343.682C531.203 343.682 513.003 366.882 513.003 396.682C513.003 426.482 531.403 449.682 564.403 449.682C587.803 449.682 602.803 440.082 610.403 421.682L586.203 415.282C581.803 425.682 574.803 430.082 564.803 430.082C551.003 430.082 541.603 421.282 539.403 404.482L612.003 404.482C612.403 401.282 612.603 397.282 612.603 393.682ZM564.003 363.282C576.403 363.282 585.003 370.882 586.803 386.882L539.803 386.882C542.403 371.682 551.203 363.282 564.003 363.282Z"/>
<path d="M639.603 487.682L639.603 431.082L641.203 431.082C648.203 442.882 659.003 449.682 673.603 449.682C699.003 449.682 715.003 429.282 715.003 396.682C715.003 364.082 699.003 343.682 673.603 343.682C659.003 343.682 648.203 350.482 641.203 362.282L639.603 362.282L637.403 345.682L611.603 345.682C612.603 363.882 612.603 381.882 612.603 400.082L612.603 487.682L639.603 487.682ZM663.803 427.282C649.003 427.282 639.603 415.482 639.603 396.882C639.603 378.282 649.003 366.082 663.803 366.082C678.403 366.082 688.003 378.282 688.003 396.882C688.003 415.482 678.403 427.282 663.803 427.282Z"/>
<path d="M756.603 449.682C782.603 449.682 798.403 437.682 798.403 419.882C798.403 377.682 738.603 392.682 738.603 372.282C738.603 366.282 743.803 361.482 753.603 361.482C761.803 361.482 769.603 365.282 772.403 374.482L795.603 368.482C790.603 351.482 774.403 343.682 753.203 343.682C727.803 343.682 712.803 355.882 712.803 372.482C712.803 414.882 772.403 399.882 772.403 420.082C772.403 426.882 766.803 431.882 756.203 431.882C746.003 431.882 736.603 427.282 733.603 417.082L710.403 423.082C715.803 441.682 734.203 449.682 756.603 449.682Z"/>
<path d="M809.403 449.682C818.603 449.682 826.003 443.082 826.003 433.482C826.003 424.282 818.603 417.682 809.403 417.682C800.203 417.682 792.603 424.282 792.603 433.482C792.603 443.082 800.203 449.682 809.403 449.682Z"/>
</g>
<path d="M340.967 308.173C331.879 308.173 324.696 312.024 318.935 319.704L317.654 319.704L316.123 309.454L292.185 309.454C292.825 321.102 292.842 332.619 292.842 344.267L292.842 364.11L292.779 364.11L292.779 424.673C292.779 441.441 301.108 450.517 315.06 450.517C324.148 450.517 331.3 446.665 337.06 438.985L338.342 438.985L339.873 449.235L363.81 449.235C363.17 437.587 363.186 426.071 363.185 414.423L363.185 374.735L363.217 374.735L363.217 334.048C363.217 317.28 354.919 308.173 340.967 308.173ZM328.935 329.298C334.951 329.298 338.279 333.405 338.279 340.829L338.279 364.11L338.217 364.11L338.217 415.204C338.217 423.652 334.132 429.392 327.092 429.392C321.076 429.392 317.748 425.316 317.748 417.892L317.748 374.735L317.779 374.735L317.779 343.517C317.779 335.069 321.895 329.298 328.935 329.298Z" fill="#000002" fill-rule="nonzero" opacity="1" stroke="none" vectornator:layerName="Curve 1"/>
</g>
</svg>
